<?xml version="1.0" encoding="UTF-8" standalone="no"?>
<!DOCTYPE svg PUBLIC "-//W3C//DTD SVG 1.1//EN" "http://www.w3.org/Graphics/SVG/1.1/DTD/svg11.dtd">
<svg width="100%" height="100%" viewBox="0 0 100 100" version="1.1" xmlns="http://www.w3.org/2000/svg" xmlns:xlink="http://www.w3.org/1999/xlink" xml:space="preserve" xmlns:serif="http://www.serif.com/" style="fill-rule:evenodd;clip-rule:evenodd;stroke-linejoin:round;stroke-miterlimit:2;">
    <g transform="matrix(0.16742,0,0,0.16742,17.362,7.52986)">
        <path d="M381.2,172.8C377.1,164.9 368.9,160 360,160L203.4,160L254.24,32.9C257.209,25.525 256.302,17.12 251.834,10.52C247.366,3.92 239.1,0 232,0L56,0C43.97,0 33.81,8.906 32.22,20.84L0.22,260.84C-0.718,267.7 1.376,274.6 5.938,279.8C10.5,285 17.09,288 24,288L170.3,288L128.52,482.1C126.114,493.32 131.989,504.66 142.52,509.19C145.6,511.4 148.8,512 152,512C159.719,512 167.22,508.25 171.81,501.56L379.81,197.56C384.8,190.2 385.4,180.7 381.2,172.8Z" style="fill-rule:nonzero;"/>
    </g>
</svg>
